<svg width="25" height="25" viewBox="0 0 25 25" fill="none" xmlns="http://www.w3.org/2000/svg">
<g id="arrow-left">
<path id="Vector" d="M10.2714 19.3211C10.0814 19.3211 9.89136 19.2511 9.74136 19.1011L3.67136 13.0311C3.38136 12.7411 3.38136 12.2611 3.67136 11.9711L9.74136 5.90109C10.0314 5.61109 10.5114 5.61109 10.8013 5.90109C11.0913 6.19109 11.0913 6.67109 10.8013 6.96109L5.26136 12.5011L10.8013 18.0411C11.0913 18.3311 11.0913 18.8111 10.8013 19.1011C10.6614 19.2511 10.4614 19.3211 10.2714 19.3211Z" fill="white"/>
<path id="Vector_2" d="M21.2018 13.25H4.37183C3.96183 13.25 3.62183 12.91 3.62183 12.5C3.62183 12.09 3.96183 11.75 4.37183 11.75H21.2018C21.6118 11.75 21.9518 12.09 21.9518 12.5C21.9518 12.91 21.6118 13.25 21.2018 13.25Z" fill="white"/>
</g>
</svg>
