<svg width="32" height="32" viewBox="0 0 32 32" fill="none" xmlns="http://www.w3.org/2000/svg">
<path d="M20 30.3332H12C4.75996 30.3332 1.66663 27.2398 1.66663 19.9998V11.9998C1.66663 4.75984 4.75996 1.6665 12 1.6665H20C27.24 1.6665 30.3333 4.75984 30.3333 11.9998V19.9998C30.3333 27.2398 27.24 30.3332 20 30.3332ZM12 3.6665C5.85329 3.6665 3.66663 5.85317 3.66663 11.9998V19.9998C3.66663 26.1465 5.85329 28.3332 12 28.3332H20C26.1466 28.3332 28.3333 26.1465 28.3333 19.9998V11.9998C28.3333 5.85317 26.1466 3.6665 20 3.6665H12Z" fill="white"/>
<path d="M18.3444 23.6668H13.6377C12.171 23.6668 11.011 22.9468 10.3577 21.6402L9.171 19.2535C8.891 18.6802 8.31767 18.3335 7.67767 18.3335H2.651C2.10433 18.3335 1.651 17.8802 1.651 17.3335C1.651 16.7868 2.11767 16.3335 2.66433 16.3335H7.67767C9.07767 16.3335 10.331 17.1068 10.9577 18.3602L12.1443 20.7468C12.451 21.3602 12.9443 21.6668 13.6377 21.6668H18.3444C18.9844 21.6668 19.5577 21.3202 19.8377 20.7468L21.0244 18.3602C21.651 17.1068 22.9044 16.3335 24.3044 16.3335H29.291C29.8377 16.3335 30.291 16.7868 30.291 17.3335C30.291 17.8802 29.8377 18.3335 29.291 18.3335H24.3044C23.6644 18.3335 23.091 18.6802 22.811 19.2535L21.6244 21.6402C20.9977 22.8935 19.7444 23.6668 18.3444 23.6668Z" fill="white"/>
</svg>
