<svg xmlns="http://www.w3.org/2000/svg" width="24" height="24" viewBox="0 0 24 24" fill="none">
  <path opacity="0.4" d="M20.98 3.0199C20.5588 2.59421 20.0334 2.28622 19.4562 2.12657C18.879 1.96692 18.2701 1.96117 17.69 2.1099L7.88998 4.5599C7.08445 4.75941 6.34864 5.17496 5.76184 5.76176C5.17503 6.34857 4.75949 7.08438 4.55998 7.8899L2.10998 17.6999C1.80998 18.8899 2.14998 20.1199 3.01998 20.9899C3.67998 21.6399 4.54998 21.9999 5.44998 21.9999C5.72998 21.9999 6.01998 21.9699 6.29998 21.8899L16.11 19.4399C16.9155 19.2404 17.6513 18.8249 18.2381 18.238C18.8249 17.6512 19.2405 16.9154 19.44 16.1099L21.89 6.29991C22.19 5.10991 21.85 3.8799 20.98 3.0199Z" fill="#FAFCFC"/>
  <path d="M12 15.8811C12.5095 15.8811 13.0141 15.7807 13.4848 15.5857C13.9556 15.3908 14.3833 15.105 14.7436 14.7447C15.1039 14.3844 15.3897 13.9566 15.5846 13.4859C15.7796 13.0152 15.88 12.5106 15.88 12.0011C15.88 11.4916 15.7796 10.987 15.5846 10.5163C15.3897 10.0455 15.1039 9.61781 14.7436 9.25752C14.3833 8.89723 13.9556 8.61143 13.4848 8.41644C13.0141 8.22145 12.5095 8.12109 12 8.12109C10.971 8.12109 9.98406 8.52988 9.25642 9.25752C8.52878 9.98516 8.12 10.9721 8.12 12.0011C8.12 13.0301 8.52878 14.017 9.25642 14.7447C9.98406 15.4723 10.971 15.8811 12 15.8811Z" fill="#FAFCFC"/>
</svg>