<svg width="18" height="18" viewBox="0 0 18 18" fill="none" xmlns="http://www.w3.org/2000/svg">
<g id="Iconsax/Bulk/filter">
<path id="Vector" opacity="0.4" d="M15.45 3.07642V4.72642C15.45 5.32642 15.075 6.07642 14.7 6.45142L11.475 9.30142C11.025 9.67642 10.725 10.4264 10.725 11.0264V14.2514C10.725 14.7014 10.425 15.3014 10.05 15.5264L9.00001 16.2014C8.02501 16.8014 6.67501 16.1264 6.67501 14.9264V10.9514C6.67501 10.4264 6.37501 9.75142 6.07501 9.37642L5.32501 8.58892L9.69001 1.57642H13.95C14.775 1.57642 15.45 2.25142 15.45 3.07642Z" fill="#1B6FA8" fill-opacity="0.5"/>
<path id="Vector_2" d="M8.47499 1.57642L4.58999 7.80892L3.22499 6.37642C2.84999 6.00142 2.54999 5.32642 2.54999 4.87642V3.15142C2.54999 2.25142 3.22499 1.57642 4.04999 1.57642H8.47499Z" fill="#1B6FA8" fill-opacity="0.5"/>
</g>
</svg>
