<svg xmlns="http://www.w3.org/2000/svg" width="24" height="24" viewBox="0 0 24 24" fill="none">
  <path opacity="0.4" d="M19.969 10V18C19.969 21 18.969 22 15.969 22H7.96899C4.96899 22 3.96899 21 3.96899 18V10H19.969Z" fill="#FAFCFC"/>
  <path d="M21.5 7V8C21.5 9.1 20.97 10 19.5 10H4.5C2.97 10 2.5 9.1 2.5 8V7C2.5 5.9 2.97 5 4.5 5H19.5C20.97 5 21.5 5.9 21.5 7Z" fill="#FAFCFC"/>
  <path opacity="0.4" d="M11.639 5.00104H6.11901C5.95458 4.8227 5.86581 4.58749 5.8714 4.34498C5.877 4.10247 5.97653 3.8716 6.14901 3.70104L7.56901 2.28104C7.74872 2.10333 7.99127 2.00366 8.24401 2.00366C8.49675 2.00366 8.73929 2.10333 8.91901 2.28104L11.639 5.00104ZM17.872 5.00104H12.352L15.072 2.28104C15.2517 2.10333 15.4943 2.00366 15.747 2.00366C15.9997 2.00366 16.2423 2.10333 16.422 2.28104L17.842 3.70104C18.202 4.06104 18.212 4.63104 17.872 5.00104Z" fill="#FAFCFC"/>
  <path opacity="0.6" d="M8.94098 10V15.14C8.94098 15.94 9.82098 16.41 10.491 15.98L11.431 15.36C11.5943 15.2525 11.7855 15.1952 11.981 15.1952C12.1765 15.1952 12.3677 15.2525 12.531 15.36L13.421 15.96C13.5712 16.0601 13.7457 16.1176 13.926 16.1263C14.1063 16.135 14.2855 16.0945 14.4446 16.0093C14.6037 15.9241 14.7367 15.7973 14.8294 15.6425C14.9221 15.4876 14.9711 15.3105 14.971 15.13V10H8.94098Z" fill="#FAFCFC"/>
</svg>