<svg width="32" height="32" viewBox="0 0 32 32" fill="none" xmlns="http://www.w3.org/2000/svg">
<path d="M16.0001 30.3332C8.09341 30.3332 1.66675 23.9065 1.66675 15.9998C1.66675 8.09317 8.09341 1.6665 16.0001 1.6665C23.9067 1.6665 30.3334 8.09317 30.3334 15.9998C30.3334 23.9065 23.9067 30.3332 16.0001 30.3332ZM16.0001 3.6665C9.20008 3.6665 3.66675 9.19984 3.66675 15.9998C3.66675 22.7998 9.20008 28.3332 16.0001 28.3332C22.8001 28.3332 28.3334 22.7998 28.3334 15.9998C28.3334 9.19984 22.8001 3.6665 16.0001 3.6665Z" fill="white"/>
<path d="M16.0001 17.3332C15.2534 17.3332 14.6667 16.7332 14.6667 15.9998C14.6667 15.2665 15.2667 14.6665 16.0001 14.6665C16.7334 14.6665 17.3334 15.2665 17.3334 15.9998C17.3334 16.7332 16.7467 17.3332 16.0001 17.3332Z" fill="white"/>
<path d="M21.3333 17.3332C20.5867 17.3332 20 16.7332 20 15.9998C20 15.2665 20.6 14.6665 21.3333 14.6665C22.0667 14.6665 22.6667 15.2665 22.6667 15.9998C22.6667 16.7332 22.08 17.3332 21.3333 17.3332Z" fill="white"/>
<path d="M10.6666 17.3332C9.91992 17.3332 9.33325 16.7332 9.33325 15.9998C9.33325 15.2665 9.93325 14.6665 10.6666 14.6665C11.3999 14.6665 11.9999 15.2665 11.9999 15.9998C11.9999 16.7332 11.4133 17.3332 10.6666 17.3332Z" fill="white"/>
</svg>
