<svg xmlns="http://www.w3.org/2000/svg" width="24" height="24" viewBox="0 0 24 24" fill="none">
  <path opacity="0.4" d="M12.89 5.87903H5.11C4.28599 5.88167 3.49648 6.21017 2.91381 6.79284C2.33114 7.37551 2.00264 8.16502 2 8.98903V20.349C2 21.799 3.04 22.419 4.31 21.709L8.24 19.519C8.66 19.289 9.34 19.289 9.75 19.519L13.68 21.709C14.95 22.419 15.99 21.799 15.99 20.349V8.98903C15.9907 8.58127 15.911 8.17738 15.7556 7.80042C15.6001 7.42345 15.372 7.08079 15.0841 6.792C14.7962 6.50321 14.4543 6.27394 14.0779 6.11729C13.7014 5.96065 13.2978 5.87968 12.89 5.87903Z" fill="#FAFCFC"/>
  <path d="M22 5.11V16.47C22 17.92 20.96 18.53 19.69 17.83L16 15.77V8.99C16 7.28 14.6 5.88 12.89 5.88H8V5.11C8 3.4 9.4 2 11.11 2H18.89C20.6 2 22 3.4 22 5.11Z" fill="#FAFCFC"/>
</svg>