<svg xmlns="http://www.w3.org/2000/svg" width="24" height="24" viewBox="0 0 24 24" fill="none">
  <path opacity="0.4" d="M12 22.012C17.523 22.012 22 17.535 22 12.012C22 6.48896 17.523 2.01196 12 2.01196C6.477 2.01196 2 6.48896 2 12.012C2 17.535 6.477 22.012 12 22.012Z" fill="#FAFCFC"/>
  <path d="M12 6.94104C9.92999 6.94104 8.24999 8.62104 8.24999 10.691C8.24999 12.721 9.83999 14.371 11.95 14.431H12.13C13.1007 14.3991 14.021 13.9911 14.6965 13.2933C15.372 12.5954 15.7497 11.6623 15.75 10.691C15.75 8.62104 14.07 6.94104 12 6.94104ZM18.779 19.358C16.9335 21.0638 14.5121 22.0102 11.999 22.008C9.37899 22.008 6.99899 20.998 5.21899 19.358C5.45899 18.448 6.10899 17.618 7.05899 16.978C9.78899 15.158 14.229 15.158 16.939 16.978C17.899 17.618 18.539 18.448 18.779 19.358Z" fill="#FAFCFC"/>
</svg>