<svg xmlns="http://www.w3.org/2000/svg" width="24" height="24" viewBox="0 0 24 24" fill="none">
  <path opacity="0.4" d="M18.94 5.42104L13.77 2.43104C12.78 1.86104 11.23 1.86104 10.24 2.43104L5.02002 5.44104C2.95002 6.84104 2.83002 7.05104 2.83002 9.28104V14.711C2.83002 16.941 2.95002 17.161 5.06002 18.581L10.23 21.571C10.73 21.861 11.37 22.001 12 22.001C12.63 22.001 13.27 21.861 13.76 21.571L18.98 18.561C21.05 17.161 21.17 16.951 21.17 14.721V9.28104C21.17 7.05104 21.05 6.84104 18.94 5.42104Z" fill="#FAFCFC"/>
  <path d="M12 15.25C12.862 15.25 13.6886 14.9076 14.2981 14.2981C14.9076 13.6886 15.25 12.862 15.25 12C15.25 11.138 14.9076 10.3114 14.2981 9.7019C13.6886 9.09241 12.862 8.75 12 8.75C11.138 8.75 10.3114 9.09241 9.7019 9.7019C9.09241 10.3114 8.75 11.138 8.75 12C8.75 12.862 9.09241 13.6886 9.7019 14.2981C10.3114 14.9076 11.138 15.25 12 15.25Z" fill="#FAFCFC"/>
</svg>