<svg width="145" height="127" viewBox="0 0 145 127" fill="none" xmlns="http://www.w3.org/2000/svg">
<path d="M138.782 101.051C142.85 108.072 141.608 117.898 136.009 122.998C130.41 128.099 122.574 126.542 118.506 119.522L63.7064 24.9488C59.6385 17.9285 60.8797 8.10253 66.4787 3.00196C72.0776 -2.09862 79.9141 -0.542344 83.982 6.478L138.782 101.051Z" fill="#A3A3A3"/>
<path d="M28.8455 119.522C24.7776 126.542 16.9411 128.099 11.3421 122.998C5.74318 117.897 4.502 108.072 8.56988 101.051L63.3696 6.47792C67.4374 -0.542421 75.2739 -2.0987 80.8729 3.00188C86.4719 8.10246 87.713 17.9284 83.6452 24.9488L28.8455 119.522Z" fill="#A3A3A3"/>
<rect x="5.33594" y="7.80847" width="25" height="118" rx="12.5" transform="rotate(0.16335 5.33594 7.80847)" fill="#F5177E"/>
<rect x="0.310547" y="16.7942" width="25" height="118" rx="12.5" transform="rotate(-35.8366 0.310547 16.7942)" fill="#FFC122"/>
<rect x="124.706" y="4.1488" width="25" height="118" rx="12.5" transform="rotate(36.1634 124.706 4.1488)" fill="#1B6FA8"/>
<rect x="116.336" y="8.12488" width="25" height="118" rx="12.5" transform="rotate(0.16335 116.336 8.12488)" fill="#1F1F1F"/>
</svg>
